<svg width="247" height="77" viewBox="0 0 247 77" fill="none" xmlns="http://www.w3.org/2000/svg">
<path d="M36.5374 50.166C36.5374 53.1722 35.5245 55.5085 33.4985 57.1749C31.5707 58.9068 28.9566 59.7727 25.6563 59.7727C24.5454 59.7727 23.3364 59.642 22.0293 59.3806C20.7223 59.1192 19.4969 58.7434 18.3533 58.2532C17.7978 58.4166 17.2423 58.5963 16.6868 58.7924C16.164 58.9885 15.6739 59.2172 15.2164 59.4786C14.6282 57.9102 14.0237 56.3744 13.4029 54.8713C12.8147 53.3682 12.2266 51.8324 11.6384 50.264C11.8671 50.1333 12.0795 50.0189 12.2756 49.9209C12.4716 49.7902 12.684 49.6758 12.9127 49.5778C14.5139 52.1592 16.066 54.0054 17.5691 55.1164C18.0592 55.5085 18.631 55.8679 19.2845 56.1947C19.9707 56.5214 20.6733 56.7992 21.3921 57.0279C22.111 57.2893 22.8299 57.4854 23.5487 57.6161C24.2676 57.7468 24.9211 57.8121 25.5093 57.8121C26.751 57.8121 27.862 57.6487 28.8422 57.322C29.8225 56.9952 30.6394 56.5378 31.2929 55.9496C32.6653 54.6752 33.3515 52.9924 33.3515 50.9012C33.3515 50.117 33.1718 49.3491 32.8124 48.5975C32.4529 47.8133 31.9791 47.1761 31.391 46.686C30.0839 45.6404 27.5189 44.464 23.6958 43.157C20.6569 42.0787 18.2553 40.8207 16.4908 39.3829C14.1381 37.5858 12.9618 35.3965 12.9618 32.8151C12.9618 30.1683 13.9094 28.0444 15.8046 26.4433C17.6344 24.8422 20.0198 24.0416 22.9606 24.0416C24.3656 24.0416 25.738 24.2377 27.0777 24.6298C27.4372 24.7605 27.7803 24.8912 28.107 25.0219C28.4665 25.1526 28.7932 25.2833 29.0873 25.414L32.0281 24.4337C32.6163 25.9368 33.2045 27.4236 33.7926 28.894C34.3808 30.3644 34.969 31.8511 35.5571 33.3542C35.1977 33.5176 34.8383 33.6973 34.4788 33.8934C33.1064 31.5407 31.538 29.6782 29.7735 28.3058C27.6496 26.7374 25.3623 25.9531 22.9116 25.9531C22.062 25.9531 21.2778 26.0839 20.5589 26.3453C19.84 26.574 19.1865 26.8844 18.5984 27.2765C17.7815 27.832 17.1443 28.5345 16.6868 29.3841C16.2294 30.2337 16.0006 31.2303 16.0006 32.374C16.0006 34.2365 16.9646 35.7886 18.8924 37.0303C19.8727 37.6184 20.8203 38.1249 21.7352 38.5497C22.6502 38.9418 23.8265 39.3666 25.2642 39.8241C27.2575 40.4776 28.9403 41.1474 30.3127 41.8336C31.685 42.5198 32.7797 43.1897 33.5966 43.8432C35.5571 45.4116 36.5374 47.5192 36.5374 50.166ZM59.922 58.9394H50.3643V57.371C51.5079 57.371 52.3085 57.224 52.766 56.9299C53.3214 56.5704 53.5992 55.8679 53.5992 54.8223V42.5198C53.5992 39.775 52.3085 38.4027 49.7271 38.4027C48.1913 38.4027 46.9006 38.6641 45.855 39.1869C45.3975 39.4156 44.8584 39.726 44.2376 40.1181C43.6167 40.4776 42.9305 40.9187 42.179 41.4415V54.8223C42.179 55.8026 42.3914 56.4561 42.8162 56.7828C43.0776 56.9462 43.437 57.0769 43.8945 57.1749C44.3519 57.3056 44.9074 57.371 45.5609 57.371V58.9394H36.0032V57.371C37.2449 57.371 38.1435 57.1749 38.699 56.7828C39.0257 56.4561 39.1891 55.8026 39.1891 54.8223V41.2945C39.1891 40.4122 39.0257 39.8567 38.699 39.628C38.2415 39.2686 37.4083 39.0888 36.1993 39.0888C36.1339 38.9255 36.0849 38.7458 36.0522 38.5497C36.0522 38.3536 36.0196 38.1739 35.9542 38.0105C36.9998 37.6511 38.0291 37.2917 39.0421 36.9322C40.0877 36.5728 41.1333 36.2134 42.179 35.8539V39.3339C44.9564 37.0466 47.7829 35.903 50.6584 35.903C52.6516 35.903 54.1383 36.4748 55.1186 37.6184C56.0989 38.7948 56.589 40.4612 56.589 42.6178V54.7733C56.589 55.7862 56.7851 56.4561 57.1772 56.7828C57.4386 56.9462 57.798 57.0769 58.2555 57.1749C58.713 57.3056 59.2685 57.371 59.922 57.371V58.9394ZM62.6847 37.2753C64.6453 36.3604 66.8999 35.903 69.4486 35.903C71.5072 35.903 73.1737 36.4421 74.4481 37.5204C75.8204 38.7621 76.5066 40.4939 76.5066 42.7159V55.4104C76.5066 55.5738 76.5066 55.7699 76.5066 55.9986C76.5393 56.2273 76.572 56.4561 76.6047 56.6848C76.67 56.9135 76.7517 57.1096 76.8497 57.273C76.9804 57.4364 77.1275 57.518 77.2909 57.518C77.781 57.518 78.4835 57.1586 79.3984 56.4397L79.9866 57.1749C78.5489 58.9068 77.2745 59.7727 76.1635 59.7727C74.7258 59.7727 73.8599 58.8578 73.5658 57.0279C71.5399 58.8578 68.9585 59.7727 65.8216 59.7727C64.7433 59.7727 63.763 59.6583 62.8808 59.4296C62.0312 59.2008 61.3124 58.8414 60.7242 58.3513C59.5152 57.3383 58.9107 55.9169 58.9107 54.0871C58.9107 52.7147 59.3681 51.4893 60.2831 50.411C61.2307 49.3001 62.4397 48.3851 63.9101 47.6663C66.4261 46.3592 69.6284 45.4606 73.5168 44.9705V41.9317C73.5168 40.6573 73.1247 39.628 72.3405 38.8438C71.883 38.3863 71.3438 38.0596 70.723 37.8635C70.1348 37.6674 69.4977 37.5694 68.8115 37.5694C67.5044 37.5694 66.3934 37.8308 65.4785 38.3536C64.923 38.7131 64.4819 39.0725 64.1552 39.4319C63.8284 39.7587 63.665 40.1345 63.665 40.5593V40.8043C63.665 42.4055 62.9625 43.206 61.5574 43.206C60.2831 43.206 59.6459 42.4708 59.6459 41.0004C59.6459 39.4646 60.6588 38.2229 62.6847 37.2753ZM73.5168 46.833C70.6413 47.1271 67.9782 47.944 65.5275 49.2837C63.3056 50.5254 62.1946 52.1102 62.1946 54.0381C62.1946 55.0837 62.6194 55.9333 63.469 56.5868C64.3185 57.2076 65.3805 57.518 66.6549 57.518C67.8312 57.518 69.0565 57.2893 70.3309 56.8318C71.3765 56.4724 72.4385 55.8516 73.5168 54.9693V46.833ZM97.9555 53.0578C98.1189 53.1885 98.2823 53.3029 98.4457 53.4009C98.609 53.4989 98.7724 53.6133 98.9358 53.744C96.5505 57.7958 93.3482 59.8217 89.3291 59.8217C86.4536 59.8217 84.0029 58.8087 81.977 56.7828C79.9511 54.5609 78.9382 51.7671 78.9382 48.4015C78.9382 44.9052 80.0492 41.899 82.2711 39.3829C84.4277 37.0303 87.1235 35.8539 90.3584 35.8539C92.2863 35.8539 93.9691 36.2297 95.4068 36.9813C95.9296 37.2427 96.4034 37.5531 96.8282 37.9125C97.2857 38.272 97.6614 38.6967 97.9555 39.1869C98.2823 39.7424 98.4457 40.2979 98.4457 40.8533C98.4457 41.4415 98.2823 41.997 97.9555 42.5198C97.6288 43.0426 97.1386 43.304 96.4851 43.304C95.3088 43.304 94.5246 42.3891 94.1325 40.5593C94.0344 40.0691 93.8384 39.6607 93.5443 39.3339C93.2502 39.0072 92.8908 38.7131 92.466 38.4517C91.6164 37.9289 90.5708 37.6674 89.3291 37.6674C87.4666 37.6674 85.8164 38.6314 84.3787 40.5593C82.941 42.5852 82.2221 44.9705 82.2221 47.7153C82.2221 49.1857 82.4018 50.5254 82.7612 51.7344C83.1534 52.9434 83.7252 53.989 84.4767 54.8713C86.0125 56.7011 87.924 57.6161 90.2113 57.6161C93.0215 57.6161 95.6029 56.0966 97.9555 53.0578ZM117.739 53.0578C117.902 53.1885 118.066 53.3029 118.229 53.4009C118.393 53.4989 118.556 53.6133 118.719 53.744C116.334 57.7958 113.132 59.8217 109.113 59.8217C106.237 59.8217 103.787 58.8087 101.761 56.7828C99.7347 54.5609 98.7218 51.7671 98.7218 48.4015C98.7218 44.9052 99.8327 41.899 102.055 39.3829C104.211 37.0303 106.907 35.8539 110.142 35.8539C112.07 35.8539 113.753 36.2297 115.19 36.9813C115.713 37.2427 116.187 37.5531 116.612 37.9125C117.069 38.272 117.445 38.6967 117.739 39.1869C118.066 39.7424 118.229 40.2979 118.229 40.8533C118.229 41.4415 118.066 41.997 117.739 42.5198C117.412 43.0426 116.922 43.304 116.269 43.304C115.092 43.304 114.308 42.3891 113.916 40.5593C113.818 40.0691 113.622 39.6607 113.328 39.3339C113.034 39.0072 112.674 38.7131 112.25 38.4517C111.4 37.9289 110.354 37.6674 109.113 37.6674C107.25 37.6674 105.6 38.6314 104.162 40.5593C102.725 42.5852 102.006 44.9705 102.006 47.7153C102.006 49.1857 102.185 50.5254 102.545 51.7344C102.937 52.9434 103.509 53.989 104.26 54.8713C105.796 56.7011 107.708 57.6161 109.995 57.6161C112.805 57.6161 115.386 56.0966 117.739 53.0578Z" fill="#242424"/>
<path d="M150.991 24.9528V60.3898H144.375V44.9014H127.734V60.3898H121.118V24.9528H127.734V40.1961H144.375V24.9528H150.991ZM176.172 35.2457V60.3898H172.471C171.671 60.3898 171.164 60.0222 170.952 59.287L170.535 57.2774C169.506 58.323 168.371 59.1726 167.129 59.8261C165.887 60.4633 164.425 60.7819 162.742 60.7819C161.37 60.7819 160.153 60.5531 159.091 60.0957C158.045 59.6219 157.163 58.9602 156.444 58.1106C155.725 57.2611 155.178 56.2563 154.802 55.0963C154.442 53.9199 154.263 52.6293 154.263 51.2242V35.2457H160.316V51.2242C160.316 52.76 160.667 53.9526 161.37 54.8022C162.089 55.6354 163.159 56.052 164.58 56.052C165.626 56.052 166.606 55.8233 167.521 55.3659C168.436 54.8921 169.302 54.2467 170.119 53.4298V35.2457H176.172ZM185.286 53.8709C185.972 54.7042 186.716 55.2923 187.516 55.6354C188.333 55.9785 189.191 56.1501 190.09 56.1501C191.021 56.1501 191.854 55.9867 192.589 55.6599C193.341 55.3168 193.978 54.794 194.501 54.0915C195.024 53.3726 195.424 52.4659 195.702 51.3712C195.979 50.2603 196.118 48.9369 196.118 47.4011C196.118 44.64 195.661 42.6468 194.746 41.4214C193.831 40.1797 192.516 39.5589 190.8 39.5589C189.64 39.5589 188.627 39.8285 187.761 40.3676C186.895 40.8904 186.07 41.6338 185.286 42.5978V53.8709ZM185.286 38.3336C186.299 37.2716 187.418 36.4302 188.644 35.8093C189.885 35.1722 191.299 34.8536 192.883 34.8536C194.337 34.8536 195.644 35.1395 196.804 35.7113C197.981 36.2831 198.977 37.1082 199.794 38.1865C200.628 39.2485 201.265 40.5392 201.706 42.0586C202.147 43.578 202.368 45.2853 202.368 47.1805C202.368 49.2228 202.114 51.0771 201.608 52.7436C201.101 54.4101 200.374 55.8397 199.427 57.0323C198.495 58.2087 197.368 59.1236 196.045 59.7771C194.721 60.4306 193.251 60.7574 191.633 60.7574C190.849 60.7574 190.139 60.6757 189.501 60.5123C188.864 60.3653 188.276 60.1529 187.737 59.8751C187.198 59.5974 186.699 59.2625 186.242 58.8703C185.801 58.4619 185.376 58.0126 184.968 57.5225L184.698 59.2134C184.6 59.6382 184.428 59.9405 184.183 60.1202C183.955 60.2999 183.636 60.3898 183.228 60.3898H179.233V23.9725H185.286V38.3336Z" fill="#242424"/>
<path d="M224.04 13.5072C218.659 13.5072 214.325 16.0357 211.373 19.4949C208.444 22.9262 206.801 27.3512 206.801 31.362C206.801 34.1315 208.009 38.3764 210.547 43.6228C213.112 48.9252 217.114 55.4097 222.894 62.7015C223.663 63.672 225.159 63.7011 225.951 62.7047C230.925 56.4431 234.923 50.2249 237.685 44.7631C240.415 39.3664 242.045 34.5031 242.045 31.0137C242.045 21.0814 234.571 13.5072 224.04 13.5072Z" fill="#242424"/>
<path d="M224.04 13.5072C218.659 13.5072 214.325 16.0357 211.373 19.4949C208.444 22.9262 206.801 27.3512 206.801 31.362C206.801 34.1315 208.009 38.3764 210.547 43.6228C213.112 48.9252 217.114 55.4097 222.894 62.7015C223.663 63.672 225.159 63.7011 225.951 62.7047C230.925 56.4431 234.923 50.2249 237.685 44.7631C240.415 39.3664 242.045 34.5031 242.045 31.0137C242.045 21.0814 234.571 13.5072 224.04 13.5072Z" fill="url(#paint0_linear_89_48)"/>
<path d="M224.04 13.5072C218.659 13.5072 214.325 16.0357 211.373 19.4949C208.444 22.9262 206.801 27.3512 206.801 31.362C206.801 34.1315 208.009 38.3764 210.547 43.6228C213.112 48.9252 217.114 55.4097 222.894 62.7015C223.663 63.672 225.159 63.7011 225.951 62.7047C230.925 56.4431 234.923 50.2249 237.685 44.7631C240.415 39.3664 242.045 34.5031 242.045 31.0137C242.045 21.0814 234.571 13.5072 224.04 13.5072Z" stroke="#242424" stroke-width="3.34329"/>
<path d="M227.13 22.2918C227.891 21.0767 227.524 19.4372 226.155 19.0103C225.272 18.7348 224.351 18.5808 223.418 18.5558C221.615 18.5077 219.832 18.9435 218.255 19.818C216.677 20.6925 215.363 21.9737 214.448 23.5283C213.534 25.0829 213.052 26.8542 213.054 28.6579C213.056 30.4616 213.541 32.2318 214.459 33.7845C215.377 35.3372 216.694 36.6156 218.273 37.4868C219.853 38.358 221.637 38.79 223.44 38.7381C224.373 38.7113 225.293 38.5553 226.176 38.278C227.543 37.8481 227.906 36.2079 227.143 34.9944V34.9944C226.379 33.781 224.723 33.5072 223.29 33.5484V33.5484C222.415 33.5737 221.548 33.3638 220.781 32.9407C220.014 32.5175 219.374 31.8966 218.928 31.1425C218.482 30.3883 218.247 29.5285 218.246 28.6524C218.245 27.7764 218.479 26.916 218.923 26.161C219.367 25.4059 220.006 24.7836 220.772 24.3589C221.538 23.9341 222.404 23.7225 223.28 23.7458V23.7458C224.713 23.7841 226.369 23.5068 227.13 22.2918V22.2918Z" fill="#242424"/>
<path d="M221.382 42.2026C220.534 43.3055 220.736 44.922 222.014 45.4713C222.913 45.8578 223.868 46.1132 224.849 46.2257C226.67 46.4346 228.513 46.144 230.181 45.3851C231.849 44.6262 233.278 43.4276 234.317 41.918C235.356 40.4083 235.964 38.6444 236.076 36.8154C236.188 34.9865 235.801 33.1614 234.955 31.536C234.109 29.9105 232.836 28.546 231.274 27.5887C229.711 26.6314 227.918 26.1174 226.086 26.1018C225.098 26.0934 224.119 26.23 223.179 26.5035C221.843 26.8923 221.446 28.4719 222.152 29.6704V29.6704C222.859 30.8689 224.435 31.1908 225.825 31.1427C225.898 31.1402 225.97 31.1392 226.043 31.1399C226.961 31.1477 227.859 31.4051 228.642 31.8847C229.424 32.3642 230.062 33.0477 230.486 33.8619C230.909 34.6762 231.103 35.5904 231.047 36.5065C230.991 37.4227 230.686 38.3063 230.166 39.0625C229.646 39.8187 228.93 40.4191 228.094 40.7992C227.259 41.1794 226.335 41.3249 225.424 41.2203C225.351 41.2121 225.279 41.2022 225.208 41.1909C223.834 40.973 222.23 41.0996 221.382 42.2026V42.2026Z" fill="#242424"/>
<defs>
<linearGradient id="paint0_linear_89_48" x1="236.272" y1="21.1792" x2="203.572" y2="32.6659" gradientUnits="userSpaceOnUse">
<stop stop-color="#E2554C"/>
<stop offset="1" stop-color="#EEBDB9"/>
</linearGradient>
</defs>
</svg>
